<svg width="24" height="24" viewBox="0 0 24 24" fill="none" xmlns="http://www.w3.org/2000/svg">
<path d="M20.0004 3.99951H3.99963C2.90043 3.99951 2.01003 4.89951 2.01003 5.99991L2.00043 17.9999C2.00043 19.1003 2.90043 20.0003 3.99963 20.0003H20.0004C21.0996 20.0003 21.9996 19.1003 21.9996 17.9999V5.99991C21.9996 4.89951 21.0996 3.99951 20.0004 3.99951ZM19.5996 8.24991L12.5304 12.6707C12.3709 12.7689 12.1873 12.8209 12 12.8209C11.8127 12.8209 11.6291 12.7689 11.4696 12.6707L4.40043 8.24991C4.30155 8.19292 4.21517 8.11659 4.14644 8.02548C4.07772 7.93437 4.02805 7.83035 4.0004 7.71963C3.97276 7.6089 3.96771 7.49374 3.98555 7.38102C4.00339 7.2683 4.04376 7.16032 4.10424 7.06355C4.16473 6.96677 4.24409 6.88317 4.3376 6.81774C4.4311 6.75231 4.53683 6.70638 4.64847 6.68271C4.76012 6.65904 4.87538 6.6581 4.9874 6.67996C5.09941 6.70181 5.20587 6.74601 5.30043 6.80991L12 11.0003L18.6996 6.80991C18.7942 6.74601 18.9006 6.70181 19.0127 6.67996C19.1247 6.6581 19.2399 6.65904 19.3516 6.68271C19.4632 6.70638 19.569 6.75231 19.6625 6.81774C19.756 6.88317 19.8353 6.96677 19.8958 7.06355C19.9563 7.16032 19.9967 7.2683 20.0145 7.38102C20.0323 7.49374 20.0273 7.6089 19.9997 7.71963C19.972 7.83035 19.9223 7.93437 19.8536 8.02548C19.7849 8.11659 19.6985 8.19292 19.5996 8.24991Z" fill="url(#paint0_linear_119_145)"/>
<defs>
<linearGradient id="paint0_linear_119_145" x1="12" y1="3.99951" x2="12" y2="20.0003" gradientUnits="userSpaceOnUse">
<stop stop-color="#153F8E"/>
<stop offset="1" stop-color="#0F244E"/>
</linearGradient>
</defs>
</svg>
