<svg width="96" height="96" viewBox="0 0 96 96" fill="none" xmlns="http://www.w3.org/2000/svg">
<path d="M4.20001 84V74.8C4.20001 72.5333 4.73335 70.65 5.80001 69.15C6.86668 67.65 8.36668 66.4333 10.3 65.5C13.9 63.7667 17.75 62.3333 21.85 61.2C25.95 60.0667 30.6 59.5 35.8 59.5C41 59.5 45.65 60.0667 49.75 61.2C53.85 62.3333 57.7 63.7667 61.3 65.5C63.2333 66.4333 64.7333 67.65 65.8 69.15C66.8667 70.65 67.4 72.5333 67.4 74.8V84H4.20001ZM10.2 78H61.4V74.8C61.4 73.8 61.1167 72.9833 60.55 72.35C59.9833 71.7167 59.3 71.2333 58.5 70.9C55.6333 69.6333 52.4333 68.4167 48.9 67.25C45.3667 66.0833 41 65.5 35.8 65.5C30.6 65.5 26.2333 66.0833 22.7 67.25C19.1667 68.4167 15.9667 69.6333 13.1 70.9C12.3 71.2333 11.6167 71.7167 11.05 72.35C10.4833 72.9833 10.2 73.8 10.2 74.8V78ZM35.8 53.5C31.4 53.5 27.8 52.0667 25 49.2C22.2 46.3333 20.8 42.7667 20.8 38.5H19.8C19.2667 38.5 18.8 38.3 18.4 37.9C18 37.5 17.8 37.0333 17.8 36.5C17.8 35.9667 18 35.5 18.4 35.1C18.8 34.7 19.2667 34.5 19.8 34.5H20.8C20.8 31.8333 21.4667 29.4333 22.8 27.3C24.1333 25.1667 25.8667 23.4333 28 22.1V26C28 26.4 28.15 26.75 28.45 27.05C28.75 27.35 29.1 27.5 29.5 27.5C29.9667 27.5 30.3333 27.35 30.6 27.05C30.8667 26.75 31 26.4 31 26V20.8C31.5333 20.6667 32.2667 20.55 33.2 20.45C34.1333 20.35 35.0333 20.3 35.9 20.3C36.7667 20.3 37.6667 20.35 38.6 20.45C39.5333 20.55 40.2667 20.6667 40.8 20.8V26C40.8 26.4 40.9333 26.75 41.2 27.05C41.4667 27.35 41.8333 27.5 42.3 27.5C42.7 27.5 43.05 27.35 43.35 27.05C43.65 26.75 43.8 26.4 43.8 26V22.1C45.9333 23.4333 47.6333 25.1667 48.9 27.3C50.1667 29.4333 50.8 31.8333 50.8 34.5H51.8C52.3333 34.5 52.8 34.7 53.2 35.1C53.6 35.5 53.8 35.9667 53.8 36.5C53.8 37.0333 53.6 37.5 53.2 37.9C52.8 38.3 52.3333 38.5 51.8 38.5H50.8C50.8 42.7667 49.4 46.3333 46.6 49.2C43.8 52.0667 40.2 53.5 35.8 53.5ZM35.8 47.5C38.6 47.5 40.8 46.6667 42.4 45C44 43.3333 44.8 41.1667 44.8 38.5H26.8C26.8 41.1667 27.6 43.3333 29.2 45C30.8 46.6667 33 47.5 35.8 47.5ZM66 59.9L65.8 57C65.3333 56.7333 64.85 56.4333 64.35 56.1C63.85 55.7667 63.4 55.4333 63 55.1L60.4 56.5L58.2 53.3L60.8 51.4C60.6667 51.1333 60.6 50.8833 60.6 50.65V49.15C60.6 48.9167 60.6667 48.6667 60.8 48.4L58.2 46.5L60.4 43.3L63 44.7L64.4 43.7C64.8667 43.3667 65.3333 43.0667 65.8 42.8L66 39.9H70L70.2 42.8C70.6667 43.0667 71.1333 43.3667 71.6 43.7L73 44.7L75.6 43.3L77.8 46.5L75.2 48.4C75.3333 48.6667 75.4 48.9167 75.4 49.15V50.65C75.4 50.8833 75.3333 51.1333 75.2 51.4L77.8 53.3L75.6 56.5L73 55.1C72.6 55.4333 72.15 55.7667 71.65 56.1C71.15 56.4333 70.6667 56.7333 70.2 57L70 59.9H66ZM68 53.7C69.0667 53.7 69.9667 53.3333 70.7 52.6C71.4333 51.8667 71.8 50.9667 71.8 49.9C71.8 48.8333 71.4333 47.9333 70.7 47.2C69.9667 46.4667 69.0667 46.1 68 46.1C66.9333 46.1 66.0333 46.4667 65.3 47.2C64.5667 47.9333 64.2 48.8333 64.2 49.9C64.2 50.9667 64.5667 51.8667 65.3 52.6C66.0333 53.3333 66.9333 53.7 68 53.7ZM76.8 38.2L75.9 34.7C75.2334 34.4333 74.55 34.0667 73.85 33.6C73.15 33.1333 72.5667 32.6333 72.1 32.1L67.7 33.7L65.7 30.2L69.2 27.4C69.0667 27.0667 68.95 26.7 68.85 26.3C68.75 25.9 68.7 25.5 68.7 25.1C68.7 24.7 68.75 24.3 68.85 23.9C68.95 23.5 69.0667 23.1333 69.2 22.8L65.7 20L67.7 16.5L72.1 18.1C72.5667 17.5667 73.15 17.05 73.85 16.55C74.55 16.05 75.2334 15.7 75.9 15.5L76.8 12H80.6L81.5 15.5C82.1667 15.7 82.85 16.05 83.55 16.55C84.25 17.05 84.8334 17.5667 85.3 18.1L89.7 16.5L91.7 20L88.2 22.8C88.3333 23.1333 88.45 23.5 88.55 23.9C88.65 24.3 88.7 24.7 88.7 25.1C88.7 25.5 88.65 25.9 88.55 26.3C88.45 26.7 88.3333 27.0667 88.2 27.4L91.7 30.2L89.7 33.7L85.3 32.1C84.8334 32.6333 84.25 33.1333 83.55 33.6C82.85 34.0667 82.1667 34.4333 81.5 34.7L80.6 38.2H76.8ZM78.7 30.9C80.3667 30.9 81.75 30.35 82.85 29.25C83.95 28.15 84.5 26.7667 84.5 25.1C84.5 23.4333 83.95 22.05 82.85 20.95C81.75 19.85 80.3667 19.3 78.7 19.3C77.0333 19.3 75.65 19.85 74.55 20.95C73.45 22.05 72.9 23.4333 72.9 25.1C72.9 26.7667 73.45 28.15 74.55 29.25C75.65 30.35 77.0333 30.9 78.7 30.9ZM10.2 78H61.4H10.2Z" fill="#021231"/>
</svg>
