<svg width="48" height="48" viewBox="0 0 48 48" fill="none" xmlns="http://www.w3.org/2000/svg">
<g clip-path="url(#clip0_119_151)">
<path d="M48 24.1466C48 10.8925 37.254 0.146484 24 0.146484C10.746 0.146484 0 10.8925 0 24.1466C0 36.1265 8.776 46.0545 20.25 47.8545V31.0845H14.156V24.1445H20.25V18.8606C20.25 12.8465 23.834 9.52248 29.316 9.52248C31.94 9.52248 34.688 9.99249 34.688 9.99249V15.8985H31.6601C28.6781 15.8985 27.748 17.7485 27.748 19.6466V24.1466H34.404L33.34 31.0865H27.748V47.8565C39.2239 46.0545 48 36.1245 48 24.1466Z" fill="url(#paint0_linear_119_151)"/>
</g>
<defs>
<linearGradient id="paint0_linear_119_151" x1="24" y1="0.146484" x2="24" y2="47.8565" gradientUnits="userSpaceOnUse">
<stop stop-color="#153F8E"/>
<stop offset="1" stop-color="#0F244E"/>
</linearGradient>
<clipPath id="clip0_119_151">
<rect width="48" height="48" fill="white"/>
</clipPath>
</defs>
</svg>
