<svg width="48" height="48" viewBox="0 0 48 48" fill="none" xmlns="http://www.w3.org/2000/svg">
<g clip-path="url(#clip0_119_153)">
<path d="M24 0C17.4799 0 16.666 0.03 14.106 0.144C11.55 0.264 9.81 0.666 8.28 1.26C6.702 1.872 5.362 2.694 4.028 4.028C2.694 5.362 1.87001 6.70001 1.26 8.28C0.666 9.81 0.262001 11.55 0.144 14.106C0.024 16.666 0 17.4799 0 24C0 30.5201 0.03 31.334 0.144 33.894C0.264 36.4481 0.666 38.19 1.26 39.72C1.872 41.2961 2.694 42.6379 4.028 43.972C5.362 45.3041 6.70001 46.13 8.28 46.74C9.81199 47.3321 11.552 47.7379 14.106 47.856C16.666 47.976 17.4799 48 24 48C30.5201 48 31.334 47.97 33.894 47.856C36.4481 47.736 38.19 47.3321 39.72 46.74C41.2961 46.128 42.6379 45.3041 43.972 43.972C45.3041 42.6379 46.13 41.302 46.74 39.72C47.3321 38.19 47.7379 36.4481 47.856 33.894C47.976 31.334 48 30.5201 48 24C48 17.4799 47.97 16.666 47.856 14.106C47.736 11.552 47.3321 9.80801 46.74 8.28C46.128 6.702 45.3041 5.362 43.972 4.028C42.6379 2.694 41.302 1.87001 39.72 1.26C38.19 0.666 36.4481 0.262001 33.894 0.144C31.334 0.024 30.5201 0 24 0ZM24 4.32C30.406 4.32 31.17 4.35199 33.7001 4.462C36.0401 4.572 37.31 4.96001 38.154 5.292C39.278 5.726 40.074 6.246 40.918 7.08401C41.756 7.92401 42.276 8.722 42.71 9.846C43.038 10.69 43.43 11.96 43.536 14.3C43.65 16.8319 43.6759 17.592 43.6759 24C43.6759 30.408 43.646 31.17 43.528 33.7001C43.4059 36.0401 43.0159 37.31 42.686 38.154C42.238 39.278 41.7281 40.074 40.8881 40.918C40.05 41.756 39.24 42.276 38.128 42.71C37.288 43.038 35.9981 43.43 33.6581 43.536C31.11 43.65 30.36 43.6759 23.94 43.6759C17.518 43.6759 16.768 43.646 14.222 43.528C11.88 43.4059 10.59 43.0159 9.75 42.686C8.61199 42.238 7.83 41.7281 6.992 40.8881C6.15 40.05 5.61199 39.24 5.19199 38.128C4.86199 37.288 4.47401 35.9981 4.35199 33.6581C4.26199 31.1381 4.23 30.36 4.23 23.97C4.23 17.578 4.26199 16.798 4.35199 14.248C4.47401 11.908 4.86199 10.62 5.19199 9.78C5.61199 8.64 6.15 7.86 6.992 7.018C7.83 6.18 8.61199 5.64 9.75 5.22199C10.59 4.89 11.852 4.5 14.192 4.38C16.742 4.29 17.4919 4.26 23.91 4.26L24 4.32ZM24 11.676C17.19 11.676 11.676 17.196 11.676 24C11.676 30.81 17.196 36.324 24 36.324C30.81 36.324 36.324 30.804 36.324 24C36.324 17.19 30.804 11.676 24 11.676ZM24 32C19.58 32 16 28.42 16 24C16 19.58 19.58 16 24 16C28.42 16 32 19.58 32 24C32 28.42 28.42 32 24 32ZM39.6919 11.19C39.6919 12.78 38.4 14.07 36.812 14.07C35.222 14.07 33.9319 12.778 33.9319 11.19C33.9319 9.602 35.224 8.31199 36.812 8.31199C38.398 8.31 39.6919 9.602 39.6919 11.19Z" fill="url(#paint0_linear_119_153)"/>
</g>
<defs>
<linearGradient id="paint0_linear_119_153" x1="24" y1="0" x2="24" y2="48" gradientUnits="userSpaceOnUse">
<stop stop-color="#153F8E"/>
<stop offset="1" stop-color="#0F244E"/>
</linearGradient>
<clipPath id="clip0_119_153">
<rect width="48" height="48" fill="white"/>
</clipPath>
</defs>
</svg>
