<svg width="20" height="14" viewBox="0 0 20 14" fill="none" xmlns="http://www.w3.org/2000/svg">
<g clip-path="url(#clip0_185_3)">
<path fill-rule="evenodd" clip-rule="evenodd" d="M19.5492 0.455812C19.8377 0.747522 19.9997 1.14311 19.9997 1.55559C19.9997 1.96807 19.8377 2.36366 19.5492 2.65537L8.78002 13.5443C8.49151 13.8359 8.10027 13.9997 7.69232 13.9997C7.28438 13.9997 6.89314 13.8359 6.60463 13.5443L0.450785 7.32203C0.170542 7.02865 0.0154738 6.63572 0.0189791 6.22785C0.0224843 5.81999 0.184283 5.42984 0.469526 5.14143C0.754769 4.85302 1.14063 4.68942 1.54401 4.68587C1.94739 4.68233 2.33601 4.83912 2.62617 5.12248L7.69232 10.2449L17.3739 0.455812C17.6624 0.16419 18.0536 0.000366211 18.4616 0.000366211C18.8695 0.000366211 19.2607 0.16419 19.5492 0.455812V0.455812Z" fill="#278DEC"/>
</g>
<defs>
<clipPath id="clip0_185_3">
<rect width="20" height="14" fill="white"/>
</clipPath>
</defs>
</svg>
