<svg width="24" height="24" viewBox="0 0 24 24" fill="none" xmlns="http://www.w3.org/2000/svg">
<path d="M12 2.00049C7.79997 2.00049 3.99957 5.22009 3.99957 10.2001C3.99957 13.3801 6.44997 17.1205 11.34 21.4297C11.5248 21.5891 11.7607 21.6769 12.0048 21.6769C12.2488 21.6769 12.4848 21.5891 12.6696 21.4297C17.55 17.1205 20.0004 13.3801 20.0004 10.2001C20.0004 5.22009 16.2 2.00049 12 2.00049ZM12 12.0001C10.8996 12.0001 9.99957 11.1001 9.99957 9.99969C9.99957 8.89929 10.8996 7.99929 12 7.99929C13.1004 7.99929 14.0004 8.89929 14.0004 9.99969C14.0004 11.1001 13.1004 12.0001 12 12.0001Z" fill="url(#paint0_linear_119_147)"/>
<defs>
<linearGradient id="paint0_linear_119_147" x1="12" y1="2.00049" x2="12" y2="21.6769" gradientUnits="userSpaceOnUse">
<stop stop-color="#153F8E"/>
<stop offset="1" stop-color="#0F244E"/>
</linearGradient>
</defs>
</svg>
