<svg width="203" height="27" viewBox="0 0 203 27" fill="none" xmlns="http://www.w3.org/2000/svg">
<path d="M16.2 21.28L16.52 21.72L16.16 25.76H0L0.28 18.08L0 0H16.32L16.64 0.440001L16.24 4.48L10.08 4.28L5.44 4.32L5.32 10.52L9.76 10.6L13.96 10.48L14.28 10.88L13.92 14.92L9.36 14.8L5.24 14.84L5.2 17.6L5.32 21.48L9.84 21.52L16.2 21.28Z" fill="#021231"/>
<path d="M38.2316 19.36L38.4316 25.76H32.9516L24.8716 13.24H24.5916L24.5516 18.68L24.7116 25.76H20.1516L20.3516 19.84L20.1516 5.56H25.5916L33.6716 18.08H34.0316L33.8716 5.76L38.5116 5.44L38.2316 19.36Z" fill="#021231"/>
<path d="M53.7006 5.28C55.9406 5.28 58.0473 5.65333 60.0206 6.4L58.7006 10.96H58.2606C57.2206 10.3733 56.2873 9.96 55.4606 9.72C54.6606 9.48 53.7673 9.36 52.7806 9.36C50.9406 9.36 49.6073 9.85333 48.7806 10.84C47.9806 11.8 47.5806 13.48 47.5806 15.88C47.5806 17.48 47.754 18.7333 48.1006 19.64C48.4473 20.5467 48.994 21.2 49.7406 21.6C50.514 21.9733 51.554 22.16 52.8606 22.16C53.6606 22.16 54.5006 22 55.3806 21.68V20.4L55.3406 17.2L59.9406 16.88L59.8606 19.56V24.76C57.2473 25.64 54.794 26.08 52.5006 26.08C49.1406 26.08 46.6073 25.2267 44.9006 23.52C43.194 21.7867 42.3406 19.32 42.3406 16.12C42.3406 12.6 43.3273 9.92 45.3006 8.08C47.274 6.21333 50.074 5.28 53.7006 5.28Z" fill="#021231"/>
<path d="M66.4819 20.36C67.3085 20.36 67.9485 20.6 68.4019 21.08C68.8819 21.56 69.1219 22.2267 69.1219 23.08C69.1219 23.9867 68.8685 24.7067 68.3619 25.24C67.8552 25.7733 67.1619 26.04 66.2819 26.04C65.4019 26.04 64.7219 25.8 64.2419 25.32C63.7885 24.84 63.5619 24.16 63.5619 23.28C63.5619 22.4 63.8152 21.6933 64.3219 21.16C64.8552 20.6267 65.5752 20.36 66.4819 20.36Z" fill="#021231"/>
<path d="M106.957 25.76H102.157L101.757 17.96L100.837 8.04H100.437L94.6772 23.04H90.4772L85.2372 8.04H84.8772L83.8772 17.44L83.3172 25.76H78.7572L81.3572 0H87.5972L88.6372 3.8L92.7172 16H93.0772L97.3572 3.8L98.5172 0H104.637L106.957 25.76Z" fill="#021231"/>
<path d="M129.032 25.76H123.952L123.392 22.84L123.032 21.68L118.952 21.64L115.352 21.72L115.072 22.56L114.472 25.76H109.552L116.632 5.56H122.592L129.032 25.76ZM121.952 17.88L119.672 10.16H119.352L116.672 17.88L119.272 17.92L121.952 17.88Z" fill="#021231"/>
<path d="M144.933 5.96L144.653 9.8L140.573 9.52H139.413L139.293 19.28L139.453 25.76H134.453L134.653 19.76L134.573 9.52H133.413L129.253 9.8L128.933 9.4L129.213 5.56H144.653L144.933 5.96Z" fill="#021231"/>
<path d="M162.508 21.68L162.828 22L162.468 25.76H148.628L148.828 19.76L148.628 5.56H162.668L162.948 5.96L162.628 9.68L157.428 9.48H153.668L153.588 13.56L157.188 13.6L160.668 13.48L160.948 13.84L160.628 17.64L156.828 17.52H153.508L153.468 19.28L153.548 21.84H157.068L162.508 21.68Z" fill="#021231"/>
<path d="M183.71 15.84L183.67 18.92C183.697 21.2133 182.937 22.9867 181.39 24.24C179.87 25.4667 177.684 26.08 174.83 26.08C172.057 26.08 169.937 25.4667 168.47 24.24C167.004 22.9867 166.31 21.2133 166.39 18.92L166.43 15.76L166.31 5.56H171.35L171.11 18.2C171.084 19.5067 171.39 20.4667 172.03 21.08C172.697 21.6933 173.697 22 175.03 22C176.39 22 177.39 21.6933 178.03 21.08C178.697 20.44 179.017 19.48 178.99 18.2L178.79 5.56H183.87L183.71 15.84Z" fill="#021231"/>
<path d="M196.296 5.28C198.216 5.28 200.056 5.61333 201.816 6.28L201.056 10.76L200.336 10.96C199.483 10.32 198.656 9.84 197.856 9.52C197.056 9.2 196.323 9.04 195.656 9.04C194.909 9.04 194.323 9.22667 193.896 9.6C193.469 9.94667 193.256 10.3733 193.256 10.88C193.256 11.44 193.523 11.9067 194.056 12.28C194.589 12.6267 195.429 13.04 196.576 13.52C197.776 14.0267 198.749 14.4933 199.496 14.92C200.269 15.3467 200.923 15.9467 201.456 16.72C202.016 17.4667 202.296 18.4133 202.296 19.56C202.296 20.7067 201.989 21.7867 201.376 22.8C200.789 23.7867 199.883 24.5867 198.656 25.2C197.456 25.8133 195.963 26.12 194.176 26.12C193.216 26.12 192.163 26.0133 191.016 25.8C189.896 25.6133 188.803 25.3067 187.736 24.88L188.416 20.16L188.936 19.8C189.816 20.6 190.803 21.24 191.896 21.72C192.989 22.2 193.963 22.44 194.816 22.44C195.563 22.44 196.163 22.2533 196.616 21.88C197.096 21.5067 197.336 21.04 197.336 20.48C197.336 19.8933 197.056 19.4267 196.496 19.08C195.963 18.7067 195.123 18.2933 193.976 17.84C192.776 17.3333 191.789 16.8667 191.016 16.44C190.269 15.9867 189.616 15.3733 189.056 14.6C188.523 13.8267 188.256 12.8667 188.256 11.72C188.256 10.52 188.576 9.42667 189.216 8.44C189.883 7.45333 190.816 6.68 192.016 6.12C193.243 5.56 194.669 5.28 196.296 5.28Z" fill="#021231"/>
</svg>
