<svg width="96" height="96" viewBox="0 0 96 96" fill="none" xmlns="http://www.w3.org/2000/svg">
<path d="M78.1 36.3L65 23.2L54.5 33.8L44.4 23.7L57.1 11C57.8334 10.2667 58.6 9.75 59.4 9.45C60.2 9.15 61.0667 9 62 9C62.9334 9 63.8167 9.15 64.65 9.45C65.4834 9.75 66.2667 10.2667 67 11L77.4 21.4C78.4 22.4 79.1667 23.5333 79.7 24.8C80.2334 26.0667 80.5334 27.3667 80.6 28.7C80.6667 30.0333 80.5 31.35 80.1 32.65C79.7 33.95 79.0334 35.1667 78.1 36.3ZM23.8 54.4C22.4667 53.0667 21.8 51.35 21.8 49.25C21.8 47.15 22.4667 45.4333 23.8 44.1L32.9 34.9L43.2 45.2L34 54.4C32.5334 55.8667 30.8 56.5667 28.8 56.5C26.8 56.4333 25.1334 55.7333 23.8 54.4ZM17.4 85.1C16.7334 84.4333 16.2334 83.6667 15.9 82.8C15.5667 81.9333 15.4 81.0333 15.4 80.1C15.4 79.1667 15.5667 78.2667 15.9 77.4C16.2334 76.5333 16.7334 75.7667 17.4 75.1L47.4 45.2L33 30.7C32 29.7 31.5 28.5333 31.5 27.2C31.5 25.8667 32 24.7 33 23.7C34 22.7 35.1834 22.2 36.55 22.2C37.9167 22.2 39.1 22.7 40.1 23.7L54.5 38.1L60.2 32.4L70.7 43.1C71.3 43.7 71.6 44.4 71.6 45.2C71.6 46 71.3 46.7 70.7 47.3C69.8334 48.1667 68.9834 48.45 68.15 48.15C67.3167 47.85 66.5334 47.3333 65.8 46.6L27.3 85.1C26.6334 85.7667 25.8834 86.2667 25.05 86.6C24.2167 86.9333 23.3334 87.1 22.4 87.1C21.4667 87.1 20.5667 86.9333 19.7 86.6C18.8334 86.2667 18.0667 85.7667 17.4 85.1Z" fill="#021231"/>
</svg>
