<svg width="96" height="96" viewBox="0 0 96 96" fill="none" xmlns="http://www.w3.org/2000/svg">
<path d="M77 60.5V28.3L56 13.6L35 28.3V41.2H29V25.3L56 6L83 25.3V60.5H77ZM58 34H62V30H58V34ZM50 34H54V30H50V34ZM58 42H62V38H58V42ZM50 42H54V38H50V42ZM56.6 89.8L25.5 80.9V86.6H4V47.2H34.9L60.4 56.8C62.2 57.4667 63.7167 58.55 64.95 60.05C66.1833 61.55 66.8 63.7 66.8 66.5H78.2C81 66.5 83.3333 67.5 85.2 69.5C87.0667 71.5 88 74.2 88 77.6V80.2L56.6 89.8ZM10 80.6H19.4V53.2H10V80.6ZM56.2 83.6L81.8 75.8C81.4 74.5333 80.9 73.6667 80.3 73.2C79.7 72.7333 79 72.5 78.2 72.5H57.5C55.5 72.5 53.65 72.3667 51.95 72.1C50.25 71.8333 48.6333 71.4667 47.1 71L39 68.5L41.2 62.7L48.5 65.1C50.1667 65.6333 51.75 66 53.25 66.2C54.75 66.4 57.1333 66.5 60.4 66.5C60.4 65.7 60.25 64.9167 59.95 64.15C59.65 63.3833 59.1333 62.8333 58.4 62.5L33.9 53.2H25.5V74.6L56.2 83.6Z" fill="#021231"/>
</svg>
