<svg width="24" height="24" viewBox="0 0 24 24" fill="none" xmlns="http://www.w3.org/2000/svg">
<path d="M19.23 15.2606L16.6896 14.9702C16.3911 14.9352 16.0885 14.9683 15.8046 15.067C15.5207 15.1657 15.2628 15.3275 15.0504 15.5402L13.2096 17.3798C10.3712 15.936 8.06414 13.6289 6.6204 10.7906L8.4696 8.94017C8.9004 8.51057 9.1104 7.91057 9.0396 7.29977L8.7504 4.77977C8.69356 4.29186 8.4593 3.84188 8.0922 3.5155C7.72511 3.18912 7.25081 3.00912 6.7596 3.00977H5.0304C3.9 3.00977 2.9604 3.95057 3.03 5.07977C3.5604 13.6202 10.3896 20.4398 18.9204 20.9702C20.0496 21.0398 20.9904 20.1002 20.9904 18.9698V17.2406C20.9929 16.7515 20.8145 16.2788 20.4895 15.9133C20.1646 15.5478 19.716 15.3153 19.23 15.2606Z" fill="url(#paint0_linear_119_149)"/>
<defs>
<linearGradient id="paint0_linear_119_149" x1="12.0084" y1="3.00977" x2="12.0084" y2="20.9738" gradientUnits="userSpaceOnUse">
<stop stop-color="#153F8E"/>
<stop offset="1" stop-color="#0F244E"/>
</linearGradient>
</defs>
</svg>
