<svg width="48" height="48" viewBox="0 0 48 48" fill="none" xmlns="http://www.w3.org/2000/svg">
<path d="M46.996 12.3719C46.7248 11.3504 46.1901 10.4181 45.4452 9.66837C44.7005 8.91863 43.7717 8.37773 42.752 8.09985C39.0101 7.08984 24 7.08984 24 7.08984C24 7.08984 8.99 7.08984 5.246 8.09985C4.22682 8.37822 3.29859 8.91932 2.55415 9.669C1.80972 10.4187 1.27518 11.3507 1.004 12.3719C0 16.1399 0 23.9999 0 23.9999C0 23.9999 0 31.8599 1.004 35.6279C1.27517 36.6494 1.80994 37.5816 2.55479 38.3313C3.29961 39.081 4.22835 39.6219 5.248 39.8999C8.99 40.9098 24 40.9098 24 40.9098C24 40.9098 39.0101 40.9098 42.7541 39.8999C43.7738 39.6222 44.7025 39.0813 45.4474 38.3316C46.1923 37.5818 46.727 36.6494 46.998 35.6279C48 31.8599 48 23.9999 48 23.9999C48 23.9999 48 16.1399 46.996 12.3719ZM19.09 31.1358V16.8639L31.6361 23.9999L19.09 31.1358Z" fill="url(#paint0_linear_119_155)"/>
<defs>
<linearGradient id="paint0_linear_119_155" x1="24" y1="7.08984" x2="24" y2="40.9098" gradientUnits="userSpaceOnUse">
<stop stop-color="#153F8E"/>
<stop offset="1" stop-color="#0F244E"/>
</linearGradient>
</defs>
</svg>
